<?xml version="1.0" encoding="UTF-8"?>
<svg id="JT_Logo_Wordmark" xmlns="http://www.w3.org/2000/svg" viewBox="0 0 1024 350">
  <defs>
    <style>
      .cls-1 {
        fill: #1f2328;
      }
    </style>
  </defs>
  <path class="cls-1" d="M33.55,231.35c-7.23,0-14.18-1.31-20.71-3.88l-.85-.32v-31.85l2.12,1.55c5.15,3.81,11.15,5.75,17.85,5.75,15.27,0,22.68-11.78,22.68-36.05v-95.56h32.59v96.62c0,20.53-4.76,36.44-14.11,47.3-9.42,10.94-22.72,16.47-39.54,16.47l-.04-.04Z"/>
  <path class="cls-1" d="M195.22,214.14h-.42c-7.13,11.22-20.07,15.73-33.23,15.73-19.61,0-37.32-11.22-37.32-32.35,0-36.23,43.99-36.9,70.98-36.9,0-11.43-9.49-18.77-20.71-18.77-10.58,0-19.4,4.76-26.32,12.52l-17.25-17.67c11.85-11.22,29.1-16.83,46.14-16.83,37.75,0,47.87,19.19,47.87,54.15v53.27h-29.77v-13.16h.04ZM187.25,181.33c-9.91,0-31.92.85-31.92,15.1,0,7.76,8.18,11.43,15.31,11.43,12.73,0,24.59-6.7,24.59-19.61v-6.91h-7.97Z"/>
  <path class="cls-1" d="M266.8,122.46h31.04v14.25h.42c4.3-8.18,14.89-16.83,30.62-16.83,32.77,0,38.84,21.55,38.84,49.6v57.82h-32.35v-51.33c0-12.06-.21-27.62-16.83-27.62s-19.4,13.16-19.4,26.74v52.21h-32.35v-104.84Z"/>
  <path class="cls-1" d="M465.22,244.3c-8.64,22.22-13.58,34.71-44.45,34.71-8.18,0-16.4-1.31-24.16-3.88l4.3-26.53c4.97,2.15,9.7,3.25,15.1,3.25,14.67,0,17.04-6.24,21.55-17.67l2.36-6.03-45.93-105.69h34.92l26.95,69.25h.42l23.07-69.25h33.23l-47.45,121.84h.07Z"/>
  <path class="cls-1" d="M621.25,148.35h-28.47v34.92c0,11.22,1.31,19.4,15.31,19.4,3.46,0,10.34-.42,13.16-3.03v26.95c-7.13,2.58-15.1,3.25-22.65,3.25-21.55,0-38.17-8.85-38.17-31.71v-49.81h-20.71v-25.89h20.71v-31.04h32.35v31.04h28.47v25.93Z"/>
  <path class="cls-1" d="M660.37,122.46h32.35v16.83h.42c6.91-12.73,15.94-19.4,30.2-19.4,3.67,0,7.76.21,10.79,1.09v29.56c-4.52-1.31-9.07-2.15-13.79-2.15-24.59,0-27.62,14.25-27.62,35.17v43.78h-32.35v-104.88Z"/>
  <path class="cls-1" d="M865.5,209.16c-10.34,13.16-27.37,20.71-44.2,20.71-32.35,0-58.24-21.55-58.24-55s25.89-55,58.24-55c30.2,0,49.17,21.55,49.17,55v10.12h-75.07c2.58,12.28,11.85,20.28,24.38,20.28,10.58,0,17.67-5.4,23.07-12.73l22.65,16.61ZM838.09,162.99c.21-10.79-8.18-19.86-19.86-19.86-14.25,0-22.01,9.7-22.86,19.86h42.72Z"/>
  <path class="cls-1" d="M1007.03,209.16c-10.34,13.16-27.37,20.71-44.2,20.71-32.35,0-58.24-21.55-58.24-55s25.89-55,58.24-55c30.2,0,49.17,21.55,49.17,55v10.12h-75.07c2.58,12.28,11.85,20.28,24.38,20.28,10.58,0,17.67-5.4,23.07-12.73l22.65,16.61ZM979.62,162.99c.21-10.79-8.18-19.86-19.83-19.86-14.25,0-22.01,9.7-22.86,19.86h42.72-.04Z"/>
</svg>